<svg width="763" height="600" viewBox="0 0 763 600" fill="none" xmlns="http://www.w3.org/2000/svg">
<path d="M759.763 161.342C793.763 329.217 507.178 623.446 759.763 537.092C759.763 571.666 731.712 599.717 697.138 599.717H154.389C119.814 599.717 3.76362 599.717 91.7636 537.092C179.764 474.467 285.249 69.2169 91.7636 161.342C-101.722 253.467 55.7636 137.217 154.389 98.7169C253.014 60.2171 269.201 98.7169 269.201 98.7169L285.249 55.7918C294.382 31.3941 317.736 15.2164 343.829 15.2164H507.568C533.661 15.2164 557.015 31.3941 566.147 55.7918L582.325 98.7169C582.325 98.7169 697.138 266.217 697.138 98.7169C697.138 -68.7831 725.762 -6.53304 759.763 161.342ZM582.325 349.217C582.325 262.847 512.134 192.654 425.764 192.654C339.393 192.654 269.201 262.847 269.201 349.217C269.201 435.587 339.393 505.779 425.764 505.779C512.134 505.779 582.325 435.587 582.325 349.217ZM289 349.217C285 435 637.236 409 494 479C350.764 549 277.249 401.434 277.249 349.217C277.249 297 362.829 159.829 494 225C625.171 290.171 293 263.434 289 349.217Z" fill="white"/>
</svg>
